# xmcd CD database file
#
# Track frame offsets:
#	150
#	9335
#	19960
#	31855
#	42777
#	51217
#	62782
#	73907
#	83202
#	93822
#	104327
#	114747
#
# Disc length: 1658 seconds
#
# Revision: 0
# Processed by: cddbd v1.5PL3 Copyright (c) Steve Scherf et al.
# Submitted via: CDex 1.51
#
DISCID=9706780c
DTITLE=Sometime Band - Strings
DYEAR=1991
DGENRE=Country
TTITLE0=A Little Money
TTITLE1=Love Please Come Home
TTITLE2=Snowflake Breakdown
TTITLE3=Ashes Of Love
TTITLE4=Loose Talk
TTITLE5=Jesus Have You Noticed
TTITLE6=Mary's Gone
TTITLE7=Flop Eared Mule
TTITLE8=Someday You'll Love Me Too
TTITLE9=The Banana Boat Song
TTITLE10=Long Journey Home
TTITLE11=Farmer Man
EXTD=YEAR: 1991
EXTT0=
EXTT1=
EXTT2=
EXTT3=
EXTT4=
EXTT5=
EXTT6=
EXTT7=
EXTT8=
EXTT9=
EXTT10=
EXTT11=
PLAYORDER=
